<svg width="64" height="64" viewBox="0 0 64 64" fill="none" xmlns="http://www.w3.org/2000/svg">
  <rect width="64" height="64" rx="16" fill="#F7FAFF"/>
  <path d="M32 10L35.3 13.2L39.8 12.2L42 16.4L46.6 17.2L46.7 22L50.4 24.8L48.7 29.3L50.4 33.8L46.7 36.6L46.6 41.4L42 42.2L39.8 46.4L35.3 45.4L32 48.6L28.7 45.4L24.2 46.4L22 42.2L17.4 41.4L17.3 36.6L13.6 33.8L15.3 29.3L13.6 24.8L17.3 22L17.4 17.2L22 16.4L24.2 12.2L28.7 13.2L32 10Z" fill="url(#gear)"/>
  <circle cx="35" cy="29" r="11.5" fill="#F5F8FC"/>
  <circle cx="35" cy="29" r="7.6" fill="#153C70"/>
  <path d="M14 34C20.5 23.5 29.2 18.4 40 18.6C49.9 18.8 58 24.3 61 33.4" stroke="url(#orbit)" stroke-width="5.8" stroke-linecap="round"/>
  <path d="M12.8 37.2C21.7 43.6 30.4 46.5 39 46.1C47.6 45.8 54.8 41.9 60 34.5" stroke="url(#orbit)" stroke-width="3.8" stroke-linecap="round"/>
  <defs>
    <linearGradient id="gear" x1="16" y1="14" x2="48" y2="46" gradientUnits="userSpaceOnUse">
      <stop stop-color="#7EC8FF"/>
      <stop offset="0.55" stop-color="#2367B8"/>
      <stop offset="1" stop-color="#0C2343"/>
    </linearGradient>
    <linearGradient id="orbit" x1="14" y1="21" x2="60" y2="34" gradientUnits="userSpaceOnUse">
      <stop stop-color="#A46900"/>
      <stop offset="0.25" stop-color="#FFE39A"/>
      <stop offset="0.6" stop-color="#E2A91E"/>
      <stop offset="1" stop-color="#B47B07"/>
    </linearGradient>
  </defs>
</svg>
